<?xml version="1.0" encoding="UTF-8"?>
<svg width="28px" height="28px" viewBox="0 0 28 28" version="1.1" xmlns="http://www.w3.org/2000/svg" xmlns:xlink="http://www.w3.org/1999/xlink">
    <title>不可见</title>
    <g id="不可见" stroke="none" stroke-width="1" fill="none" fill-rule="evenodd" fill-opacity="0.3">
        <g fill="#333333" fill-rule="nonzero" id="形状结合">
            <path d="M5.85649977,5.24332635 L5.94828608,5.31833329 L23.0501957,21.5201424 C23.3709418,21.8240071 23.3846269,22.3303542 23.0807621,22.6511003 C22.8045215,22.9426876 22.3609401,22.9805055 22.0415906,22.7566737 L21.9498043,22.6816667 L4.84789464,6.47985758 C4.52714856,6.17599287 4.51346351,5.66964579 4.81732821,5.34889971 C5.09356885,5.05731237 5.5371503,5.01949447 5.85649977,5.24332635 Z M5.68358421,9.32113357 L7.0048995,10.5727703 C6.8948708,10.6573439 6.78568242,10.7436639 6.67738478,10.8316863 C5.76540911,11.5729234 4.98162864,12.3900502 4.43415815,13.1424611 C4.1994773,13.4649925 4.02254083,13.7570279 3.91418563,13.9902972 L3.864,14.1003137 L3.91418563,14.2115119 C4.02254083,14.4447812 4.1994773,14.7368166 4.43415815,15.059348 C4.98162864,15.8117589 5.76540911,16.6288857 6.67738478,17.3701229 C8.88979765,19.1683316 11.4739548,20.2561048 14,20.2561048 C14.9259815,20.2561048 15.8597718,20.1099339 16.7801968,19.8361795 L18.2553158,21.2325947 C16.9332206,21.7411024 15.4988032,22.0561048 14,22.0561048 C7.39395437,22.0561048 2.03869629,15.93672 2.03869629,14.1009046 C2.03869629,13.1631578 3.43600887,11.1077271 5.68358421,9.32113357 Z M14,6.14570437 C20.6060456,6.14570437 25.9613037,12.2650891 25.9613037,14.1009046 C25.9613037,15.0386514 24.5639911,17.094082 22.3164158,18.8806756 L20.9952256,17.6289427 C21.1052119,17.5443999 21.2143586,17.4581119 21.3226152,17.3701229 C22.2345909,16.6288857 23.0183714,15.8117589 23.5658419,15.059348 C23.8005227,14.7368166 23.9774592,14.4447812 24.0858144,14.2115119 L24.135,14.1003137 L24.0858144,13.9902972 C23.9774592,13.7570279 23.8005227,13.4649925 23.5658419,13.1424611 C23.0183714,12.3900502 22.2345909,11.5729234 21.3226152,10.8316863 C19.1102024,9.03347752 16.5260452,7.94570437 14,7.94570437 C13.0736827,7.94570437 12.1395508,8.09198125 11.2188017,8.36592759 L9.74368641,6.96959824 C11.0660577,6.46086526 12.5008198,6.14570437 14,6.14570437 Z M9.92235149,13.3381379 L14.9825749,18.1314636 C14.6675851,18.2079839 14.3385289,18.248541 14,18.248541 C11.7093237,18.248541 9.85236359,16.3915809 9.85236359,14.1009046 C9.85236359,13.8403388 9.87639115,13.585385 9.92235149,13.3381379 Z M14,9.95326815 C16.2906763,9.95326815 18.1476364,11.8102282 18.1476364,14.1009046 C18.1476364,14.3617346 18.1235601,14.6169412 18.0775086,14.8644234 L13.0174251,10.0703455 C13.3324149,9.99382522 13.6614711,9.95326815 14,9.95326815 Z"></path>
        </g>
    </g>
</svg>