<?xml version="1.0" encoding="UTF-8"?>
<svg width="28px" height="28px" viewBox="0 0 28 28" version="1.1" xmlns="http://www.w3.org/2000/svg" xmlns:xlink="http://www.w3.org/1999/xlink">
    <title>可见</title>
    <g id="可见" stroke="none" stroke-width="1" fill="none" fill-rule="evenodd" fill-opacity="0.3">
        <g fill="#333333" fill-rule="nonzero" id="编组-2">
            <g>
                <path d="M13.9613037,6.0447998 C20.5673493,6.0447998 25.9226074,12.1641846 25.9226074,14 C25.9226074,15.8358154 20.5673493,21.9552002 13.9613037,21.9552002 C7.35525808,21.9552002 2,15.8358154 2,14 C2,12.1641846 7.35525808,6.0447998 13.9613037,6.0447998 Z M13.9613037,7.8447998 C11.4352585,7.8447998 8.85110136,8.93257296 6.63868849,10.7307817 C5.72671282,11.4720189 4.94293235,12.2891456 4.39546186,13.0415566 C4.16078101,13.364088 3.98384454,13.6561234 3.87548934,13.8893926 L3.82530371,13.9994092 L3.87548934,14.1106074 C3.98384454,14.3438766 4.16078101,14.635912 4.39546186,14.9584434 C4.94293235,15.7108544 5.72671282,16.5279811 6.63868849,17.2692183 C8.85110136,19.067427 11.4352585,20.1552002 13.9613037,20.1552002 C16.4873489,20.1552002 19.0715061,19.067427 21.2839189,17.2692183 C22.1958946,16.5279811 22.9796751,15.7108544 23.5271456,14.9584434 C23.7618264,14.635912 23.9387629,14.3438766 24.0471181,14.1106074 L24.0963037,13.9994092 L24.0471181,13.8893926 C23.9387629,13.6561234 23.7618264,13.364088 23.5271456,13.0415566 C22.9796751,12.2891456 22.1958946,11.4720189 21.2839189,10.7307817 C19.0715061,8.93257296 16.4873489,7.8447998 13.9613037,7.8447998 Z M13.9613037,9.85236359 C16.25198,9.85236359 18.1089401,11.7093237 18.1089401,14 C18.1089401,16.2906763 16.25198,18.1476364 13.9613037,18.1476364 C11.6706274,18.1476364 9.8136673,16.2906763 9.8136673,14 C9.8136673,11.7093237 11.6706274,9.85236359 13.9613037,9.85236359 Z M13.9613037,11.4523636 C12.554283,11.4523636 11.4136673,12.5929793 11.4136673,14 C11.4136673,15.4070207 12.554283,16.5476364 13.9613037,16.5476364 C15.3683245,16.5476364 16.5089401,15.4070207 16.5089401,14 C16.5089401,12.5929793 15.3683245,11.4523636 13.9613037,11.4523636 Z" id="形状结合"></path>
            </g>
        </g>
    </g>
</svg>