<?xml version="1.0" encoding="UTF-8"?>
<svg width="32px" height="32px" viewBox="0 0 32 32" version="1.1" xmlns="http://www.w3.org/2000/svg" xmlns:xlink="http://www.w3.org/1999/xlink">
    <title>个人中心</title>
    <defs>
        <path d="M19.6363636,2.09945552 L26.2200428,5.90054448 C28.4702325,7.19969208 29.8564065,9.60061585 29.8564065,12.198911 L29.8564065,19.801089 C29.8564065,22.3993842 28.4702325,24.8003079 26.2200428,26.0994555 L19.6363636,29.9005445 C17.386174,31.1996921 14.613826,31.1996921 12.3636364,29.9005445 L5.77995718,26.0994555 C3.52976753,24.8003079 2.14359354,22.3993842 2.14359354,19.801089 L2.14359354,12.198911 C2.14359354,9.60061585 3.52976753,7.19969208 5.77995718,5.90054448 L12.3636364,2.09945552 C14.613826,0.800307925 17.386174,0.800307925 19.6363636,2.09945552 Z" id="path-1"></path>
    </defs>
    <g id="个人中心" stroke="none" stroke-width="1" fill="none" fill-rule="evenodd">
        <g id="编组">
            <mask id="mask-2" fill="white">
                <use xlink:href="#path-1"></use>
            </mask>
            <use id="Polygon" fill="#3E5B88" xlink:href="#path-1"></use>
            <g id="Group-5" mask="url(#mask-2)">
                <g transform="translate(9.777778, 7.111111)">
                    <path d="M6.16207185,7.05764411 C4.21327987,7.05764411 2.63324979,5.47761404 2.63324979,3.52882206 C2.63324979,1.58003008 4.21327987,0 6.16207185,0 C8.11086383,0 9.6908939,1.58003008 9.6908939,3.52882206 C9.6908939,5.47761404 8.11086383,7.05764411 6.16207185,7.05764411" id="Fill-1" fill-opacity="0.803267045" fill="#FFFFFF"></path>
                    <path d="M12.444,28.4438889 L12.4444444,31.1111111 C12.4444444,33.56571 10.4545989,35.5555556 8,35.5555556 L4.44444444,35.5555556 C1.98984556,35.5555556 2.48072343e-15,33.56571 0,31.1111111 L0,28.4438889 L12.444,28.4438889 Z M8,8.88888889 C10.4545989,8.88888889 12.4444444,10.8787344 12.4444444,13.3333333 L12.444,15.9998889 L0,15.9998889 L0,13.3333333 C-3.00601667e-16,10.8787344 1.98984556,8.88888889 4.44444444,8.88888889 L8,8.88888889 Z" id="形状结合" fill="#F3F7FB"></path>
                </g>
            </g>
        </g>
    </g>
</svg>